# xmcd
#
# Track frame offsets: 
#        150
#        12066
#        22929
#        30316
#        46314
#        54968
#        67645
#        78840
#        87319
#        98345
#        107494
#        120322
#        128071
#        134630
#        138504
#        148583
#        164591
#        183849
#        195749
#        206612
#        213999
#        229994
#        238648
#        251325
#        262520
#        270999
#        282025
#        291174
#        304006
#        311446
#        318005
#        321879
#
# Disc length: 4421 seconds
#
# Revision: 1
# Processed by: cddbd v1.5.2PL0 Copyright (c) Steve Scherf et al.
# Submitted via: ExactAudioCopy v1.1
#
DISCID=9d114320
DTITLE=Music K-8 - Vol 21 No 3
DYEAR=1900
DGENRE=
TTITLE0=Jazz Is on It's Way
TTITLE1=To Swing or Not to Swing
TTITLE2=Ode to Jazzers
TTITLE3=All Night, All Day 
TTITLE4=Shadow Free
TTITLE5=Be a Friend 
TTITLE6=John F Kennedy
TTITLE7=A New Year
TTITLE8=Hard Times Come Again No More
TTITLE9=Healty Food
TTITLE10='Neath a Mexican Moon
TTITLE11=The Oatmeal Song
TTITLE12=Sing a Song of Winter
TTITLE13=Find a Penny
TTITLE14=Banana Smoothie
TTITLE15=All Night, All Day unison
TTITLE16=Dojo Duets preview
TTITLE17=Jazz Is On Its Way  Instr
TTITLE18=To Swing or Not to Swing Instr
TTITLE19=Ode to Jazzers Instr
TTITLE20=All Night, All Day Instr
TTITLE21=Shadow Free Instr
TTITLE22=Be a Friend Instr
TTITLE23=John F Kennedy Instr
TTITLE24=A New Year Instr
TTITLE25=Hard Times Come Again No More Instr
TTITLE26=Healthy Food Instr
TTITLE27='Neath a Mexican Moon Instr
TTITLE28=The Oatmeal Song Instr
TTITLE29=Sing a Song of Winter Instr
TTITLE30=Find a Penny Instr
TTITLE31=Banana Smoothie Instr
EXTD=
EXTT0=
EXTT1=
EXTT2=
EXTT3=
EXTT4=
EXTT5=
EXTT6=
EXTT7=
EXTT8=
EXTT9=
EXTT10=
EXTT11=
EXTT12=
EXTT13=
EXTT14=
EXTT15=
EXTT16=
EXTT17=
EXTT18=
EXTT19=
EXTT20=
EXTT21=
EXTT22=
EXTT23=
EXTT24=
EXTT25=
EXTT26=
EXTT27=
EXTT28=
EXTT29=
EXTT30=
EXTT31=
PLAYORDER=
